<svg width="20" height="18" viewBox="0 0 20 18" fill="none" xmlns="http://www.w3.org/2000/svg">
<g clip-path="url(#clip0_71_111)">
<path d="M19.0489 16.7116L13.6911 11.5434C14.7473 10.3224 15.3826 8.762 15.3826 7.05773C15.3826 3.16963 12.0722 0.00823975 8.00025 0.00823975C3.92828 0.00823975 0.610229 3.17332 0.610229 7.06142C0.610229 10.9495 3.92062 14.1109 7.9926 14.1109C9.72242 14.1109 11.3145 13.5391 12.5774 12.5837L17.9544 17.7666C18.2682 18.0691 18.7351 18.0691 19.0489 17.7666C19.3627 17.4641 19.3627 17.0141 19.0489 16.7116ZM2.17932 7.06142C2.17932 4.00701 4.78936 1.52438 7.9926 1.52438C11.1958 1.52438 13.8059 4.00701 13.8059 7.06142C13.8059 10.1158 11.1958 12.5985 7.9926 12.5985C4.78936 12.5985 2.17932 10.1121 2.17932 7.06142Z" fill="black"/>
</g>
<defs>
<clipPath id="clip0_71_111">
<rect width="18.6741" height="18" fill="white" transform="translate(0.610229)"/>
</clipPath>
</defs>
</svg>
